<?xml version="1.0" encoding="iso-8859-1"?>
<!-- Generator: Adobe Illustrator 16.0.0, SVG Export Plug-In . SVG Version: 6.00 Build 0)  -->
<!DOCTYPE svg PUBLIC "-//W3C//DTD SVG 1.1//EN" "http://www.w3.org/Graphics/SVG/1.1/DTD/svg11.dtd">
<svg version="1.1" id="Capa_1" xmlns="http://www.w3.org/2000/svg" xmlns:xlink="http://www.w3.org/1999/xlink" x="0px" y="0px"
	 width="320.47px" height="320.469px" viewBox="0 0 320.47 320.469" style="enable-background:new 0 0 320.47 320.469;"
	 xml:space="preserve">
<g>
	<g>
		<path d="M51.92,262.885l7.129-9.914L61.223,256l14.77,20.521l48.326-67.196l10.022-13.93l3.063,4.264l20.466,28.457l45.558-63.342
			c3.795-5.281,2.597-12.635-2.693-16.434c-5.273-3.787-12.627-2.599-16.434,2.683l-21.438,29.797l-5.001,6.953l-1.522-2.12
			l-22.005-30.586l-58.342,81.128l-16.943-23.552l-35.498,49.352V37.201H0v266.913h290.462v-23.552H39.207L51.92,262.885z"/>
		<path d="M250.561,16.356c-38.548,0-69.91,31.362-69.91,69.91c0,38.545,31.362,69.91,69.91,69.91
			c38.547,0,69.909-31.364,69.909-69.91C320.47,47.718,289.107,16.356,250.561,16.356z M292.979,104.91
			c-2.376-1.176-5.013-1.901-7.851-1.901c-9.842,0-17.833,7.985-17.833,17.829c0,2.827,0.722,5.472,1.896,7.851
			c-5.714,2.513-11.998,3.923-18.639,3.923c-6.64,0-12.924-1.417-18.643-3.932c1.162-2.376,1.892-5.015,1.892-7.842
			c0-9.844-7.994-17.829-17.825-17.829c-2.837,0-5.474,0.725-7.85,1.894c-2.513-5.715-3.924-12.012-3.924-18.645
			c0-6.636,1.411-12.93,3.924-18.645c2.376,1.168,5.013,1.894,7.85,1.894c9.847,0,17.825-7.985,17.825-17.833
			c0-2.823-0.729-5.462-1.892-7.842c5.719-2.511,12.003-3.931,18.643-3.931c6.641,0,12.925,1.42,18.639,3.925
			c-1.174,2.38-1.896,5.017-1.896,7.848c0,9.849,7.991,17.833,17.833,17.833c2.838,0,5.475-0.726,7.851-1.902
			c2.513,5.715,3.939,12.01,3.939,18.645C296.918,92.882,295.508,99.202,292.979,104.91z"/>
		<path d="M250.561,68.437c9.85,0,17.825,7.981,17.825,17.829c0,9.846-7.976,17.827-17.825,17.827
			c-9.851,0-17.825-7.981-17.825-17.827C232.735,76.417,240.71,68.437,250.561,68.437z"/>
	</g>
</g>
<g>
</g>
<g>
</g>
<g>
</g>
<g>
</g>
<g>
</g>
<g>
</g>
<g>
</g>
<g>
</g>
<g>
</g>
<g>
</g>
<g>
</g>
<g>
</g>
<g>
</g>
<g>
</g>
<g>
</g>
</svg>
