<?xml version="1.0" encoding="utf-8"?>
<!-- Generator: Adobe Illustrator 18.0.0, SVG Export Plug-In . SVG Version: 6.00 Build 0)  -->
<!DOCTYPE svg PUBLIC "-//W3C//DTD SVG 1.1//EN" "http://www.w3.org/Graphics/SVG/1.1/DTD/svg11.dtd">
<svg version="1.1" id="Capa_1" xmlns="http://www.w3.org/2000/svg" xmlns:xlink="http://www.w3.org/1999/xlink" x="0px" y="0px"
	 viewBox="0 0 405.6 405.6" enable-background="new 0 0 405.6 405.6" xml:space="preserve">
<rect x="64.9" y="289.2" width="177.8" height="37.9"/>
<rect x="291.8" y="289.2" width="41.2" height="37.9"/>
<rect x="64.9" y="243.4" width="177.8" height="37.9"/>
<rect x="64.9" y="197.6" width="177.8" height="37.9"/>
<rect x="291.8" y="243.4" width="41.2" height="37.9"/>
<rect x="250.6" y="111.2" width="33.4" height="32.7"/>
<rect x="291.8" y="111.2" width="41.2" height="32.7"/>
<rect x="291.8" y="197.6" width="41.2" height="37.9"/>
<rect x="291.8" y="151.8" width="41.2" height="37.9"/>
<rect x="250.6" y="197.6" width="33.4" height="37.9"/>
<rect x="250.6" y="289.2" width="33.4" height="37.9"/>
<rect x="250.6" y="243.4" width="33.4" height="37.9"/>
<rect x="64.9" y="151.8" width="177.8" height="37.9"/>
<rect x="250.6" y="151.8" width="33.4" height="37.9"/>
<path d="M64.9,143.9h177.8v-32.7H64.9V143.9z M222.2,114.6c7.1,0,12.8,5.7,12.8,12.8c0,7.1-5.7,12.8-12.8,12.8
	c-7.1,0-12.8-5.7-12.8-12.8C209.3,120.3,215.1,114.6,222.2,114.6z"/>
<rect x="250.6" y="335" width="33.4" height="37.9"/>
<rect x="291.8" y="380.8" width="41.2" height="24.9"/>
<rect x="340.8" y="243.4" width="46.5" height="37.9"/>
<rect x="340.8" y="289.2" width="46.5" height="37.9"/>
<rect x="340.8" y="197.6" width="46.5" height="37.9"/>
<rect x="340.8" y="335" width="46.5" height="37.9"/>
<rect x="291.8" y="335" width="41.2" height="37.9"/>
<rect x="340.8" y="111.2" width="46.5" height="32.7"/>
<rect x="340.8" y="151.8" width="46.5" height="37.9"/>
<rect x="340.8" y="380.8" width="46.5" height="24.9"/>
<rect x="18.3" y="380.8" width="38.7" height="24.9"/>
<rect x="250.6" y="380.8" width="33.4" height="24.9"/>
<rect x="18.3" y="151.8" width="38.7" height="37.9"/>
<rect x="18.3" y="197.6" width="38.7" height="37.9"/>
<path d="M57,111.2H18.3v32.7H57V111.2z M40.8,139h-5.2v-18.4h-0.1l-4.4,2.1l-0.9-4.1l6.2-2.9h4.5L40.8,139L40.8,139z"/>
<rect x="64.9" y="380.8" width="177.8" height="24.9"/>
<rect x="18.3" y="243.4" width="38.7" height="37.9"/>
<rect x="64.9" y="335" width="177.8" height="37.9"/>
<rect x="18.3" y="335" width="38.7" height="37.9"/>
<rect x="18.3" y="289.2" width="38.7" height="37.9"/>
<rect x="18.3" width="370.6" height="101.9"/>
<rect x="60.1" y="13" fill="none" width="287" height="128"/>
<text transform="matrix(1 0 0 1 123.2637 40.8999)"><tspan x="0" y="0" fill="#FFFFFF" font-family="'Play-Regular'" font-size="37" letter-spacing="5">LEADER</tspan><tspan x="165.9" y="0" fill="#FFFFFF" font-family="'Play-Regular'" font-size="37" letter-spacing="4"> </tspan><tspan x="-1.5" y="40" fill="#FFFFFF" font-family="'Play-Regular'" font-size="37" letter-spacing="4">BOARDS</tspan></text>
</svg>
