<?xml version="1.0" encoding="utf-8"?>
<!-- Generator: Adobe Illustrator 16.0.0, SVG Export Plug-In . SVG Version: 6.00 Build 0)  -->
<!DOCTYPE svg PUBLIC "-//W3C//DTD SVG 1.1//EN" "http://www.w3.org/Graphics/SVG/1.1/DTD/svg11.dtd">
<svg version="1.1" id="Layer_1" xmlns="http://www.w3.org/2000/svg" xmlns:xlink="http://www.w3.org/1999/xlink" x="0px" y="0px"
	 width="490.08px" height="600px" viewBox="620.969 0 490.08 600" enable-background="new 620.969 0 490.08 600"
	 xml:space="preserve">
<g>
	<g>
		<g>
			<path fill="#FFFFFF" d="M1086.213,587.994H645.805V12.006h440.408V587.994z M663.422,570.373h405.174V29.624H663.422V570.373z"/>
		</g>
		<g>
			<polygon fill="#FFFFFF" points="973.289,121.513 758.77,121.513 758.77,22.138 776.391,22.138 776.391,103.895 955.672,103.895 
				955.672,20.815 973.289,20.815 			"/>
		</g>
		<g>
			<polygon fill="#FFFFFF" points="776.391,579.184 758.77,579.184 758.77,478.484 973.289,478.484 973.289,577.859 
				955.672,577.859 955.672,496.102 776.391,496.102 			"/>
		</g>
		<g>
			<path fill="#FFFFFF" d="M866.03,382.324c-45.404,0-82.344-36.938-82.344-82.325c0-45.388,36.939-82.324,82.344-82.324
				c45.369,0,82.307,36.937,82.307,82.324C948.336,345.387,911.399,382.324,866.03,382.324z M866.03,235.293
				c-35.688,0-64.727,29.035-64.727,64.707c0,35.67,29.039,64.706,64.727,64.706c35.652,0,64.689-29.035,64.689-64.706
				C930.719,264.328,901.682,235.293,866.03,235.293z"/>
		</g>
		<g>
			<rect x="655.559" y="291.191" fill="#FFFFFF" width="420.904" height="17.618"/>
		</g>
	</g>
</g>
</svg>
