<?xml version="1.0" encoding="utf-8"?>
<!-- Generator: Adobe Illustrator 16.0.0, SVG Export Plug-In . SVG Version: 6.00 Build 0)  -->
<!DOCTYPE svg PUBLIC "-//W3C//DTD SVG 1.1//EN" "http://www.w3.org/Graphics/SVG/1.1/DTD/svg11.dtd">
<svg version="1.1" id="Layer_1" xmlns="http://www.w3.org/2000/svg" xmlns:xlink="http://www.w3.org/1999/xlink" x="0px" y="0px"
	 width="490.08px" height="600px" viewBox="0 0 490.08 600" enable-background="new 0 0 490.08 600" xml:space="preserve">
<g>
	<g>
		<g>
			<path fill="#FFFFFF" d="M245.485,536.264L52.347,357.475V94H33.312V6.156h424.362V94h-19.035v263.475L245.485,536.264z
				 M69.967,349.782l175.518,162.492l175.536-162.492v-273.4h19.036V23.774H50.931v52.608h19.036V349.782z"/>
		</g>
		<g>
			<polygon fill="#FFFFFF" points="50.571,80.881 4.825,80.881 4.825,18.612 50.571,18.612 50.571,36.231 22.443,36.231 
				22.443,63.264 50.571,63.264 			"/>
		</g>
		<g>
			<polygon fill="#FFFFFF" points="485.255,79.974 443.874,79.974 443.874,64.152 469.45,64.152 469.45,35.343 440.415,35.343 
				440.415,19.52 485.255,19.52 			"/>
		</g>
		<g>
			<rect x="236.676" y="524.278" fill="#FFFFFF" width="17.617" height="69.565"/>
		</g>
		<g>
			<g>
				<rect x="186.203" y="475.659" fill="#FFFFFF" width="17.618" height="69.584"/>
			</g>
			<g>
				<rect x="135.731" y="427.135" fill="#FFFFFF" width="17.618" height="65.614"/>
			</g>
			<g>
				<rect x="85.24" y="383.43" fill="#FFFFFF" width="17.618" height="59.621"/>
			</g>
		</g>
		<g>
			<g>
				<rect x="287.545" y="475.659" fill="#FFFFFF" width="17.617" height="69.584"/>
			</g>
			<g>
				<rect x="338.017" y="430.461" fill="#FFFFFF" width="17.617" height="62.288"/>
			</g>
			<g>
				<rect x="388.506" y="384.734" fill="#FFFFFF" width="17.619" height="58.316"/>
			</g>
		</g>
		<g>
			<path fill="#FFFFFF" d="M240.664,362.92c-69.149,0-125.387-56.238-125.387-125.367c0-69.149,56.237-125.406,125.387-125.406
				c69.128,0,125.385,56.257,125.385,125.406C366.049,306.682,309.792,362.92,240.664,362.92z M240.664,129.765
				c-59.433,0-107.77,48.355-107.77,107.788c0,59.413,48.337,107.749,107.77,107.749c59.412,0,107.768-48.336,107.768-107.749
				C348.432,178.12,300.076,129.765,240.664,129.765z"/>
		</g>
		<g>
			<path fill="#FFFFFF" d="M285.01,304.754h-88.693l-27.41-84.366l71.758-52.136l71.756,52.136L285.01,304.754z M209.114,287.135
				h63.1l19.508-60.018l-51.057-37.088l-51.059,37.088L209.114,287.135z"/>
		</g>
		<g>
			<polygon fill="#FFFFFF" points="177.471,232.372 124.937,221.446 128.529,204.207 181.041,215.132 			"/>
		</g>
		<g>
			
				<rect x="318.229" y="186.306" transform="matrix(0.3843 0.9232 -0.9232 0.3843 398.3373 -170.5549)" fill="#FFFFFF" width="17.609" height="54.098"/>
		</g>
		<g>
			<rect x="231.856" y="120.956" fill="#FFFFFF" width="17.617" height="61.058"/>
		</g>
		<g>
			<polygon fill="#FFFFFF" points="185.655,340.539 170.646,331.333 195.2,291.352 210.211,300.538 			"/>
		</g>
		<g>
			<polygon fill="#FFFFFF" points="302.195,337.664 271.873,301.616 285.352,290.273 315.672,326.323 			"/>
		</g>
	</g>
</g>
</svg>
