<?xml version="1.0" encoding="utf-8"?>
<!-- Generator: Adobe Illustrator 16.0.0, SVG Export Plug-In . SVG Version: 6.00 Build 0)  -->
<!DOCTYPE svg PUBLIC "-//W3C//DTD SVG 1.1//EN" "http://www.w3.org/Graphics/SVG/1.1/DTD/svg11.dtd">
<svg version="1.1" id="Layer_1" xmlns="http://www.w3.org/2000/svg" xmlns:xlink="http://www.w3.org/1999/xlink" x="0px" y="0px"
	 width="600px" height="600px" viewBox="0 0 600 600" enable-background="new 0 0 600 600" xml:space="preserve">
<g>
	<g>
		<path fill="#FFFFFF" d="M575.748,53.446h-29.521V33.733h29.521V53.446L575.748,53.446z M516.668,63.293h-49.254v19.693h39.406
			v251.564L300,513.16L93.181,334.551V82.986h39.406V63.293H83.334h-9.866V23.887h453.046v39.406H516.668L516.668,63.293z
			 M24.234,53.446V33.733h29.54v19.713H24.234L24.234,53.446z M585.613,14.04h-39.387c0-5.454-4.412-9.847-9.865-9.847H63.641
			c-5.453,0-9.866,4.393-9.866,9.847H14.388c-5.435,0-9.847,4.413-9.847,9.847v39.406c0,5.434,4.412,9.847,9.847,9.847h39.387
			c0,5.453,4.413,9.847,9.866,9.847h9.827V339.06c0,2.852,1.253,5.569,3.431,7.438l16.282,14.066v67.115h19.713v-50.101
			l19.693,17.015v62.646h19.693v-45.631l19.693,16.996v68.021h19.694V445.62l19.693,17.015v63.531h19.693V479.65l19.693,16.995
			v59.062h19.693V513.68l19.693,16.996v64.438h19.713v-64.438l19.713-16.996v42.027h19.693v-59.062l19.693-16.995v46.516h19.693
			v-63.531l19.693-17.015v51.007h19.693v-68.021l19.693-16.996v45.631h19.693v-62.646l19.713-17.015v50.101h19.693v-67.115
			l16.283-14.066c2.178-1.869,3.41-4.587,3.41-7.438V82.986h9.848c5.453,0,9.865-4.394,9.865-9.847h39.387
			c5.434,0,9.848-4.413,9.848-9.847V23.887C595.461,18.453,591.047,14.04,585.613,14.04L585.613,14.04z"/>
		<path fill="#FFFFFF" d="M380.508,316.977l-39.887-39.889l16.996-59.504l52.336-29.906c5.24,13.354,8.227,27.845,8.227,43.048
			C418.18,264.756,403.633,295.414,380.508,316.977L380.508,316.977z M235.004,329.328l39.522-39.521h50.948l39.502,39.521
			C346.324,341.66,324.01,348.906,300,348.906S253.677,341.66,235.004,329.328L235.004,329.328z M181.82,230.726
			c0-12.159,1.85-23.856,5.261-34.917l58.676,33.529l13.624,47.75l-39.889,39.889C196.369,295.414,181.82,264.756,181.82,230.726
			L181.82,230.726z M290.135,113.028v62.876l-44.436,26.669c-1.117,0.655-1.984,1.542-2.736,2.524l-48.328-27.633
			C212.748,141.778,248.358,116.496,290.135,113.028L290.135,113.028z M322.121,270.113h-44.242L262.31,215.58L300,192.958
			l37.691,22.623L322.121,270.113L322.121,270.113z M401.203,169.988l-51.834,29.617l-39.521-23.701v-62.876
			C348.656,116.265,382.107,138.29,401.203,169.988L401.203,169.988z M300,92.833c-76.037,0-137.893,61.855-137.893,137.893
			c0,76.018,61.855,137.874,137.893,137.874s137.893-61.855,137.893-137.874C437.893,154.688,376.037,92.833,300,92.833L300,92.833z
			"/>
		<polygon fill="#FFFFFF" points="250.748,388.293 270.441,388.293 270.441,408.006 250.748,408.006 250.748,388.293 		"/>
		<polygon fill="#FFFFFF" points="290.135,388.293 309.848,388.293 309.848,408.006 290.135,408.006 290.135,388.293 		"/>
		<polygon fill="#FFFFFF" points="329.561,388.293 349.254,388.293 349.254,408.006 329.561,408.006 329.561,388.293 		"/>
		<polygon fill="#FFFFFF" points="290.135,427.68 309.848,427.68 309.848,447.393 290.135,447.393 290.135,427.68 		"/>
	</g>
</g>
</svg>
