<?xml version="1.0" encoding="utf-8"?>
<!-- Generator: Adobe Illustrator 16.0.0, SVG Export Plug-In . SVG Version: 6.00 Build 0)  -->
<!DOCTYPE svg PUBLIC "-//W3C//DTD SVG 1.1//EN" "http://www.w3.org/Graphics/SVG/1.1/DTD/svg11.dtd">
<svg version="1.1" id="Layer_1" xmlns="http://www.w3.org/2000/svg" xmlns:xlink="http://www.w3.org/1999/xlink" x="0px" y="0px"
	 width="600px" height="600px" viewBox="0 0 600 600" enable-background="new 0 0 600 600" xml:space="preserve">
<g>
	<g>
		<g>
			<path fill="#FFFFFF" d="M580.521,104.851H17.48c-6.452,0-11.681,5.23-11.681,11.682v76.307v41.641v111.042v41.641v76.306
				c0,6.451,5.229,11.682,11.681,11.682h563.041c6.449,0,11.681-5.23,11.681-11.682V387.16v-41.64V234.479v-41.641v-76.306
				C592.201,110.081,586.97,104.851,580.521,104.851z M29.161,246.161h20.08v87.679h-20.08V246.161z M29.161,357.201h31.761
				c6.451,0,11.681-5.229,11.681-11.681V234.479c0-6.452-5.23-11.682-11.681-11.682H29.161V204.52h78.001v37.587v95.787v37.585
				H29.161V357.201z M299,274.478c-6.452,0-11.681,5.23-11.681,11.682v35.639c-12.941-4.769-22.194-17.223-22.194-31.799
				c0-18.68,15.196-33.875,33.875-33.875c18.678,0,33.876,15.196,33.876,33.875c0,14.576-9.255,27.029-22.194,31.799V286.16
				C310.682,279.708,305.45,274.478,299,274.478z M568.839,333.84H548.76v-87.679h20.079V333.84z M568.839,222.798h-31.761
				c-6.45,0-11.682,5.23-11.682,11.682v111.042c0,6.452,5.231,11.681,11.682,11.681h31.761v18.278h-78.001v-37.587v-95.787v-37.586
				h78.001V222.798z M568.839,181.158h-89.683c-6.449,0-11.681,5.229-11.681,11.681v39.072
				c-23.527,6.014-41.148,29.766-41.148,58.089c0,28.322,17.621,52.076,41.148,58.089v39.071c0,6.452,5.231,11.683,11.681,11.683
				h89.683v52.944H310.682V346.036c25.978-5.408,45.557-28.478,45.557-56.036c0-31.562-25.676-57.239-57.238-57.239
				c-31.562,0-57.239,25.677-57.239,57.239c0,27.559,19.579,50.628,45.558,56.036v105.751H29.161v-52.944h89.682
				c6.452,0,11.682-5.23,11.682-11.683v-39.071c23.526-6.013,41.148-29.767,41.148-58.089c0-28.323-17.623-52.075-41.148-58.089
				v-39.072c0-6.452-5.229-11.681-11.682-11.681H29.161v-52.945h258.158v22.605c0,6.452,5.229,11.681,11.681,11.681
				c6.45,0,11.682-5.229,11.682-11.681v-22.605h258.157V181.158z M467.476,256.756v66.488
				c-10.456-5.567-17.786-18.374-17.786-33.244C449.689,275.129,457.02,262.323,467.476,256.756z M130.525,323.244v-66.488
				c10.455,5.567,17.786,18.373,17.786,33.244C148.311,304.87,140.979,317.677,130.525,323.244z"/>
			<path fill="#FFFFFF" d="M299,179.2c-6.452,0-11.681,5.23-11.681,11.682v15.186c0,6.452,5.229,11.681,11.681,11.681
				c6.45,0,11.682-5.229,11.682-11.681v-15.186C310.682,184.43,305.45,179.2,299,179.2z"/>
		</g>
	</g>
</g>
</svg>
