<?xml version="1.0" encoding="utf-8"?>
<!-- Generator: Adobe Illustrator 16.0.0, SVG Export Plug-In . SVG Version: 6.00 Build 0)  -->
<!DOCTYPE svg PUBLIC "-//W3C//DTD SVG 1.1//EN" "http://www.w3.org/Graphics/SVG/1.1/DTD/svg11.dtd">
<svg version="1.1" id="Layer_1" xmlns="http://www.w3.org/2000/svg" xmlns:xlink="http://www.w3.org/1999/xlink" x="0px" y="0px"
	 width="600px" height="600px" viewBox="0 0 600 600" enable-background="new 0 0 600 600" xml:space="preserve">
<g>
	<g>
		<path fill="#FFFFFF" d="M298.523,574.176c-119.58,0-216.863-97.283-216.863-216.863s97.283-216.864,216.863-216.864
			s216.863,97.284,216.863,216.864S418.104,574.176,298.523,574.176L298.523,574.176z M288.648,101.025h19.711v19.943
			c-3.26-0.116-6.537-0.25-9.836-0.25c-3.316,0-6.596,0.135-9.875,0.25V101.025L288.648,101.025z M259.102,61.583h78.846v19.711
			h-78.846V61.583L259.102,61.583z M328.09,122.627v-21.602h19.713c5.457,0,9.855-4.436,9.855-9.875V51.728
			c0-5.439-4.398-9.875-9.855-9.875h-98.576c-5.439,0-9.855,4.436-9.855,9.875v39.423c0,5.439,4.416,9.875,9.855,9.875h19.711
			v21.602C152.404,137.247,61.949,236.884,61.949,357.312c0,130.458,106.117,236.575,236.574,236.575
			c130.439,0,236.576-106.117,236.576-236.575C535.1,236.884,444.623,137.247,328.09,122.627L328.09,122.627z"/>
		<path fill="#FFFFFF" d="M298.523,534.754c-97.843,0-177.441-79.617-177.441-177.441c0-97.844,79.599-177.441,177.441-177.441
			c97.824,0,177.441,79.598,177.441,177.441C475.965,455.137,396.348,534.754,298.523,534.754L298.523,534.754z M298.523,160.16
			c-108.701,0-197.152,88.451-197.152,197.153s88.451,197.133,197.152,197.133c108.703,0,197.152-88.431,197.152-197.133
			S407.227,160.16,298.523,160.16L298.523,160.16z"/>
		<path fill="#FFFFFF" d="M318.234,337.602V219.718c64.477,5.362,112.561,62.895,117.807,117.883H318.234L318.234,337.602z
			 M308.359,199.602c-5.438,0-9.836,4.417-9.836,9.836v138.019c0,5.438,4.398,9.855,9.836,9.855h138.02
			c5.439,0,9.855-4.417,9.855-9.855C456.234,268.669,387.148,199.602,308.359,199.602L308.359,199.602z"/>
		<polygon fill="#FFFFFF" points="459.107,157.267 473.033,143.303 512.475,182.745 498.531,196.689 459.107,157.267 		"/>
		<polygon fill="#FFFFFF" points="249.227,2.43 268.938,2.43 268.938,22.142 249.227,22.142 249.227,2.43 		"/>
		<polygon fill="#FFFFFF" points="288.648,2.43 308.359,2.43 308.359,22.142 288.648,22.142 288.648,2.43 		"/>
		<polygon fill="#FFFFFF" points="328.09,2.43 347.803,2.43 347.803,22.142 328.09,22.142 328.09,2.43 		"/>
	</g>
</g>
</svg>
